# xmcd CD database file
#
# Track frame offsets:
#	225
#	12487
#	25169
#	39903
#	54738
#	69164
#	81868
#	94730
#	110728
#	128324
#	145095
#	158505
#	171683
#	181597
#	198589
#	212408
#
# Disc length: 3063 seconds
#
# Revision: 0
# Processed by: cddbd v1.5.1PL0 Copyright (c) Steve Scherf et al.
# Submitted via: CDex 1.51
#
DISCID=ce0bf410
DTITLE=Various Artist - Now That' Jazz [CD 2)
DYEAR=1900
DGENRE=Jazz
TTITLE0=Andy Kirk and his Clouds of Joy - Walking and Swinging
TTITLE1=Fats Waller and his Rhythm - The Joint Is Jumping
TTITLE2=Woody Herman and his Orchestra - At the Woodchopper's Ball
TTITLE3=Erskine Hawkings and his Orchestra - Tuxedo Junction
TTITLE4=Lester Young Quartett - Just You, Just Me
TTITLE5=Cab Calloway and his Orchestra - I Want To Rock
TTITLE6=Buddy Johnson and his Orchestra - Walk'em
TTITLE7=Kid Royale and the Lucky Stiffs - Three Feet (But She Can Swing)
TTITLE8=Jive Aces - Planet Jive
TTITLE9=Mitch Wood and his Rockets '88 - Golden Gate Jump
TTITLE10=Cocktail Angst - Rhumba of the Saints
TTITLE11=Big Time Operator - Are You Hep to the Jive?
TTITLE12=Gene Kelly and Pete Moore Orchestra - I Got Rhythm
TTITLE13=Bing Crosby with Count Basie and his Orchestra - Gentle On My Mind
TTITLE14=Tommy Dorsey and his Clambake Seven - There's Good Blues Tonight
TTITLE15=Oscar Peterson Trio - Girl From Ipanema
EXTD=
EXTT0=
EXTT1=
EXTT2=
EXTT3=
EXTT4=
EXTT5=
EXTT6=
EXTT7=
EXTT8=
EXTT9=
EXTT10=
EXTT11=
EXTT12=
EXTT13=
EXTT14=
EXTT15=
PLAYORDER=
